<?xml version="1.0" encoding="UTF-8" standalone="no"?><svg xmlns="http://www.w3.org/2000/svg" xmlns:xlink="http://www.w3.org/1999/xlink" contentStyleType="text/css" height="1010px" preserveAspectRatio="none" style="width:798px;height:1010px;background:#FFFFFF;" version="1.1" viewBox="0 0 798 1010" width="798px" zoomAndPan="magnify"><defs/><g><rect fill="none" height="26.2969" id="_title" style="stroke:none;stroke-width:1.0;" width="211" x="292.125" y="15"/><text fill="#000000" font-family="sans-serif" font-size="14" font-weight="bold" lengthAdjust="spacing" textLength="201" x="297.125" y="32.9951">Ineffable Gameplay Loop</text><rect fill="#F1F1F1" height="33.9688" style="stroke:#181818;stroke-width:0.5;" width="202" x="286.5" y="97.5981"/><path d="M301.5,110.5669 C300.4,110.5669 299.5,111.6869 299.5,113.0669 C299.5,114.4469 300.4,115.5669 301.5,115.5669 C302.6,115.5669 303.5,114.4469 303.5,113.0669 C303.5,111.6869 302.6,110.5669 301.5,110.5669 M299.41,115.5669 C298.35,115.6169 297.5,116.4869 297.5,117.5669 L297.5,118.5669 L305.5,118.5669 L305.5,117.5669 C305.5,116.4869 304.66,115.6169 303.59,115.5669 C303.05,116.1769 302.31,116.5669 301.5,116.5669 C300.69,116.5669 299.95,116.1769 299.41,115.5669 " fill="#000000" style="stroke:;stroke-width:0.0;stroke-dasharray:;"/><text fill="#000000" font-family="sans-serif" font-size="12" lengthAdjust="spacing" textLength="40" x="310.5" y="118.7368">Create</text><text fill="#000000" font-family="sans-serif" font-size="12" font-weight="bold" lengthAdjust="spacing" textLength="46" x="354.5" y="118.7368">Player</text><text fill="#000000" font-family="sans-serif" font-size="12" lengthAdjust="spacing" textLength="4" x="400.5" y="118.7368"> </text><text fill="#000000" font-family="sans-serif" font-size="12" font-weight="bold" lengthAdjust="spacing" textLength="74" x="404.5" y="118.7368">Character</text><polygon fill="#F1F1F1" points="334,49.1958,441,49.1958,453,61.1958,441,73.1958,334,73.1958,322,61.1958,334,49.1958" style="stroke:#181818;stroke-width:0.5;"/><text fill="#000000" font-family="sans-serif" font-size="11" lengthAdjust="spacing" textLength="21" x="391.5" y="83.4063">Yes</text><text fill="#000000" font-family="sans-serif" font-size="11" lengthAdjust="spacing" textLength="55" x="334" y="65.0039">Is there a</text><text fill="#000000" font-family="sans-serif" font-size="11" font-weight="bold" lengthAdjust="spacing" textLength="42" x="393" y="65.0039">Player</text><text fill="#000000" font-family="sans-serif" font-size="11" lengthAdjust="spacing" textLength="6" x="435" y="65.0039">?</text><text fill="#000000" font-family="sans-serif" font-size="11" lengthAdjust="spacing" textLength="15" x="453" y="58.6016">No</text><polygon fill="#F1F1F1" points="387.5,151.5669,399.5,163.5669,387.5,175.5669,375.5,163.5669,387.5,151.5669" style="stroke:#181818;stroke-width:0.5;"/><rect fill="#F1F1F1" height="33.9688" style="stroke:#181818;stroke-width:0.5;" width="203" x="286" y="239.5669"/><text fill="#000000" font-family="sans-serif" font-size="12" lengthAdjust="spacing" textLength="98" x="296" y="260.7056">Create queue of</text><text fill="#000000" font-family="sans-serif" font-size="12" font-weight="bold" lengthAdjust="spacing" textLength="74" x="398" y="260.7056">Character</text><text fill="#000000" font-family="sans-serif" font-size="12" lengthAdjust="spacing" textLength="7" x="472" y="260.7056">s</text><rect fill="#F1F1F1" height="33.9688" style="stroke:#181818;stroke-width:0.5;" width="172" x="301.5" y="337.5356"/><text fill="#000000" font-family="sans-serif" font-size="12" lengthAdjust="spacing" textLength="74" x="311.5" y="358.6743">Get the next</text><text fill="#000000" font-family="sans-serif" font-size="12" font-weight="bold" lengthAdjust="spacing" textLength="74" x="389.5" y="358.6743">Character</text><path d="M10,432.356 L10,472.6216 A0,0 0 0 0 10,472.6216 L250,472.6216 A0,0 0 0 0 250,472.6216 L250,456.4888 L270,452.4888 L250,448.4888 L250,442.356 L240,432.356 L10,432.356 A0,0 0 0 0 10,432.356 " fill="#FEFFDD" style="stroke:#181818;stroke-width:0.5;"/><path d="M240,432.356 L240,442.356 L250,442.356 L240,432.356 " fill="#FEFFDD" style="stroke:#181818;stroke-width:0.5;"/><text fill="#000000" font-family="sans-serif" font-size="13" lengthAdjust="spacing" textLength="219" x="16" y="449.4229">Each Action specifies a calculation</text><text fill="#000000" font-family="sans-serif" font-size="13" lengthAdjust="spacing" textLength="169" x="16" y="464.5557">to determine its possibility</text><rect fill="#F1F1F1" height="33.9688" style="stroke:#181818;stroke-width:0.5;" width="235" x="270" y="435.5044"/><path d="M281.75,448.4731 C281.34,448.4731 281,448.8131 281,449.2231 L281,454.7231 C281,455.1331 281.34,455.4731 281.75,455.4731 L288.25,455.4731 C288.66,455.4731 289,455.1331 289,454.7231 L289,449.2231 C289,448.8131 288.66,448.4731 288.25,448.4731 L281.75,448.4731 M282,449.4731 L283,449.4731 L283,450.4731 L282,450.4731 L282,449.4731 M284,449.4731 L288,449.4731 L288,450.4731 L284,450.4731 L284,449.4731 M282,451.4731 L283,451.4731 L283,452.4731 L282,452.4731 L282,451.4731 M284,451.4731 L288,451.4731 L288,452.4731 L284,452.4731 L284,451.4731 M282,453.4731 L283,453.4731 L283,454.4731 L282,454.4731 L282,453.4731 M284,453.4731 L288,453.4731 L288,454.4731 L284,454.4731 L284,453.4731 " fill="#000000" style="stroke:;stroke-width:0.0;stroke-dasharray:;"/><text fill="#000000" font-family="sans-serif" font-size="12" lengthAdjust="spacing" textLength="30" x="294" y="456.6431">Filter</text><text fill="#000000" font-family="sans-serif" font-size="12" font-weight="bold" lengthAdjust="spacing" textLength="46" x="328" y="456.6431">Action</text><text fill="#000000" font-family="sans-serif" font-size="12" lengthAdjust="spacing" textLength="121" x="374" y="456.6431">s to what's possible</text><polygon fill="#F1F1F1" points="322.5,492.6216,452.5,492.6216,464.5,504.6216,452.5,516.6216,322.5,516.6216,310.5,504.6216,322.5,492.6216" style="stroke:#181818;stroke-width:0.5;"/><text fill="#000000" font-family="sans-serif" font-size="11" lengthAdjust="spacing" textLength="43" x="322.5" y="508.4297">Is it the</text><text fill="#000000" font-family="sans-serif" font-size="11" font-weight="bold" lengthAdjust="spacing" textLength="42" x="369.5" y="508.4297">Player</text><text fill="#000000" font-family="sans-serif" font-size="11" lengthAdjust="spacing" textLength="41" x="411.5" y="508.4297">'s turn?</text><text fill="#000000" font-family="sans-serif" font-size="11" lengthAdjust="spacing" textLength="21" x="289.5" y="502.0273">Yes</text><text fill="#000000" font-family="sans-serif" font-size="11" lengthAdjust="spacing" textLength="15" x="464.5" y="502.0273">No</text><rect fill="#F1F1F1" height="33.9688" style="stroke:#181818;stroke-width:0.5;" width="251" x="11.25" y="526.6216"/><path d="M26.25,539.5903 C25.15,539.5903 24.25,540.7103 24.25,542.0903 C24.25,543.4703 25.15,544.5903 26.25,544.5903 C27.35,544.5903 28.25,543.4703 28.25,542.0903 C28.25,540.7103 27.35,539.5903 26.25,539.5903 M24.16,544.5903 C23.1,544.6403 22.25,545.5103 22.25,546.5903 L22.25,547.5903 L30.25,547.5903 L30.25,546.5903 C30.25,545.5103 29.41,544.6403 28.34,544.5903 C27.8,545.2003 27.06,545.5903 26.25,545.5903 C25.44,545.5903 24.7,545.2003 24.16,544.5903 " fill="#000000" style="stroke:;stroke-width:0.0;stroke-dasharray:;"/><text fill="#000000" font-family="sans-serif" font-size="12" lengthAdjust="spacing" textLength="45" x="35.25" y="547.7603">Present</text><text fill="#000000" font-family="sans-serif" font-size="12" font-weight="bold" lengthAdjust="spacing" textLength="46" x="84.25" y="547.7603">Player</text><text fill="#000000" font-family="sans-serif" font-size="12" lengthAdjust="spacing" textLength="61" x="134.25" y="547.7603">with list of</text><text fill="#000000" font-family="sans-serif" font-size="12" font-weight="bold" lengthAdjust="spacing" textLength="46" x="199.25" y="547.7603">Action</text><text fill="#000000" font-family="sans-serif" font-size="12" lengthAdjust="spacing" textLength="7" x="245.25" y="547.7603">s</text><rect fill="#F1F1F1" height="33.9688" style="stroke:#181818;stroke-width:0.5;" width="184" x="44.75" y="595.5903"/><path d="M59.75,608.5591 C58.65,608.5591 57.75,609.6791 57.75,611.0591 C57.75,612.4391 58.65,613.5591 59.75,613.5591 C60.85,613.5591 61.75,612.4391 61.75,611.0591 C61.75,609.6791 60.85,608.5591 59.75,608.5591 M57.66,613.5591 C56.6,613.6091 55.75,614.4791 55.75,615.5591 L55.75,616.5591 L63.75,616.5591 L63.75,615.5591 C63.75,614.4791 62.91,613.6091 61.84,613.5591 C61.3,614.1691 60.56,614.5591 59.75,614.5591 C58.94,614.5591 58.2,614.1691 57.66,613.5591 " fill="#000000" style="stroke:;stroke-width:0.0;stroke-dasharray:;"/><text fill="#000000" font-family="sans-serif" font-size="12" lengthAdjust="spacing" textLength="4" x="64.75" y="616.729"> </text><text fill="#000000" font-family="sans-serif" font-size="12" font-weight="bold" lengthAdjust="spacing" textLength="46" x="68.75" y="616.729">Player</text><text fill="#000000" font-family="sans-serif" font-size="12" lengthAdjust="spacing" textLength="50" x="118.75" y="616.729">picks an</text><text fill="#000000" font-family="sans-serif" font-size="12" font-weight="bold" lengthAdjust="spacing" textLength="46" x="172.75" y="616.729">Action</text><path d="M282.25,526.6216 L282.25,627.4185 A0,0 0 0 0 282.25,627.4185 L539.25,627.4185 A0,0 0 0 0 539.25,627.4185 L539.25,581.02 L559.25,577.02 L539.25,573.02 L539.25,536.6216 L529.25,526.6216 L282.25,526.6216 A0,0 0 0 0 282.25,526.6216 " fill="#FEFFDD" style="stroke:#181818;stroke-width:0.5;"/><path d="M529.25,526.6216 L529.25,536.6216 L539.25,536.6216 L529.25,526.6216 " fill="#FEFFDD" style="stroke:#181818;stroke-width:0.5;"/><text fill="#000000" font-family="sans-serif" font-size="13" lengthAdjust="spacing" textLength="219" x="288.25" y="543.6885">Each Action specifies a calculation</text><text fill="#000000" font-family="sans-serif" font-size="13" lengthAdjust="spacing" textLength="165" x="288.25" y="558.8213">to determine its likelihood</text><text fill="#000000" font-family="sans-serif" font-size="13" lengthAdjust="spacing" textLength="4" x="288.25" y="573.9541"> </text><text fill="#000000" font-family="sans-serif" font-size="13" lengthAdjust="spacing" textLength="209" x="288.25" y="589.0869">Weighted Actions are distributed</text><text fill="#000000" font-family="sans-serif" font-size="13" lengthAdjust="spacing" textLength="232" x="288.25" y="604.2197">via a weighted random function and</text><text fill="#000000" font-family="sans-serif" font-size="13" lengthAdjust="spacing" textLength="176" x="288.25" y="619.3525">an Action is chosen by RNG</text><rect fill="#F1F1F1" height="33.9688" style="stroke:#181818;stroke-width:0.5;" width="158" x="559.25" y="560.0356"/><path d="M571,573.0044 C570.59,573.0044 570.25,573.3444 570.25,573.7544 L570.25,579.2544 C570.25,579.6644 570.59,580.0044 571,580.0044 L577.5,580.0044 C577.91,580.0044 578.25,579.6644 578.25,579.2544 L578.25,573.7544 C578.25,573.3444 577.91,573.0044 577.5,573.0044 L571,573.0044 M571.25,574.0044 L572.25,574.0044 L572.25,575.0044 L571.25,575.0044 L571.25,574.0044 M573.25,574.0044 L577.25,574.0044 L577.25,575.0044 L573.25,575.0044 L573.25,574.0044 M571.25,576.0044 L572.25,576.0044 L572.25,577.0044 L571.25,577.0044 L571.25,576.0044 M573.25,576.0044 L577.25,576.0044 L577.25,577.0044 L573.25,577.0044 L573.25,576.0044 M571.25,578.0044 L572.25,578.0044 L572.25,579.0044 L571.25,579.0044 L571.25,578.0044 M573.25,578.0044 L577.25,578.0044 L577.25,579.0044 L573.25,579.0044 L573.25,578.0044 " fill="#000000" style="stroke:;stroke-width:0.0;stroke-dasharray:;"/><text fill="#000000" font-family="sans-serif" font-size="12" lengthAdjust="spacing" textLength="15" x="583.25" y="581.1743">An</text><text fill="#000000" font-family="sans-serif" font-size="12" font-weight="bold" lengthAdjust="spacing" textLength="46" x="602.25" y="581.1743">Action</text><text fill="#000000" font-family="sans-serif" font-size="12" lengthAdjust="spacing" textLength="55" x="652.25" y="581.1743">is picked</text><polygon fill="#F1F1F1" points="387.5,635.5591,399.5,647.5591,387.5,659.5591,375.5,647.5591,387.5,635.5591" style="stroke:#181818;stroke-width:0.5;"/><rect fill="#F1F1F1" height="33.9688" style="stroke:#181818;stroke-width:0.5;" width="132" x="321.5" y="685.8286"/><path d="M333.25,698.7974 C332.84,698.7974 332.5,699.1374 332.5,699.5474 L332.5,705.0474 C332.5,705.4574 332.84,705.7974 333.25,705.7974 L339.75,705.7974 C340.16,705.7974 340.5,705.4574 340.5,705.0474 L340.5,699.5474 C340.5,699.1374 340.16,698.7974 339.75,698.7974 L333.25,698.7974 M333.5,699.7974 L334.5,699.7974 L334.5,700.7974 L333.5,700.7974 L333.5,699.7974 M335.5,699.7974 L339.5,699.7974 L339.5,700.7974 L335.5,700.7974 L335.5,699.7974 M333.5,701.7974 L334.5,701.7974 L334.5,702.7974 L333.5,702.7974 L333.5,701.7974 M335.5,701.7974 L339.5,701.7974 L339.5,702.7974 L335.5,702.7974 L335.5,701.7974 M333.5,703.7974 L334.5,703.7974 L334.5,704.7974 L333.5,704.7974 L333.5,703.7974 M335.5,703.7974 L339.5,703.7974 L339.5,704.7974 L335.5,704.7974 L335.5,703.7974 " fill="#000000" style="stroke:;stroke-width:0.0;stroke-dasharray:;"/><text fill="#000000" font-family="sans-serif" font-size="12" lengthAdjust="spacing" textLength="48" x="345.5" y="706.9673">Execute</text><text fill="#000000" font-family="sans-serif" font-size="12" font-weight="bold" lengthAdjust="spacing" textLength="46" x="397.5" y="706.9673">Action</text><rect fill="#F1F1F1" height="33.9688" style="stroke:#181818;stroke-width:0.5;" width="265" x="255" y="788.1997"/><path d="M266.75,801.1685 C266.34,801.1685 266,801.5085 266,801.9185 L266,807.4185 C266,807.8285 266.34,808.1685 266.75,808.1685 L273.25,808.1685 C273.66,808.1685 274,807.8285 274,807.4185 L274,801.9185 C274,801.5085 273.66,801.1685 273.25,801.1685 L266.75,801.1685 M267,802.1685 L268,802.1685 L268,803.1685 L267,803.1685 L267,802.1685 M269,802.1685 L273,802.1685 L273,803.1685 L269,803.1685 L269,802.1685 M267,804.1685 L268,804.1685 L268,805.1685 L267,805.1685 L267,804.1685 M269,804.1685 L273,804.1685 L273,805.1685 L269,805.1685 L269,804.1685 M267,806.1685 L268,806.1685 L268,807.1685 L267,807.1685 L267,806.1685 M269,806.1685 L273,806.1685 L273,807.1685 L269,807.1685 L269,806.1685 " fill="#000000" style="stroke:;stroke-width:0.0;stroke-dasharray:;"/><text fill="#000000" font-family="sans-serif" font-size="12" lengthAdjust="spacing" textLength="111" x="279" y="809.3384">Backpropagation (</text><text fill="#000000" font-family="sans-serif" font-size="12" font-weight="bold" lengthAdjust="spacing" textLength="74" x="390" y="809.3384">Character</text><text fill="#000000" font-family="sans-serif" font-size="12" lengthAdjust="spacing" textLength="42" x="468" y="809.3384">learns)</text><polygon fill="#F1F1F1" points="322.5,739.7974,452.5,739.7974,464.5,751.7974,452.5,763.7974,322.5,763.7974,310.5,751.7974,322.5,739.7974" style="stroke:#181818;stroke-width:0.5;"/><text fill="#000000" font-family="sans-serif" font-size="11" lengthAdjust="spacing" textLength="15" x="391.5" y="774.0078">No</text><text fill="#000000" font-family="sans-serif" font-size="11" lengthAdjust="spacing" textLength="43" x="322.5" y="755.6055">Is it the</text><text fill="#000000" font-family="sans-serif" font-size="11" font-weight="bold" lengthAdjust="spacing" textLength="42" x="369.5" y="755.6055">Player</text><text fill="#000000" font-family="sans-serif" font-size="11" lengthAdjust="spacing" textLength="41" x="411.5" y="755.6055">'s turn?</text><text fill="#000000" font-family="sans-serif" font-size="11" lengthAdjust="spacing" textLength="21" x="464.5" y="749.2031">Yes</text><polygon fill="#F1F1F1" points="387.5,842.1685,399.5,854.1685,387.5,866.1685,375.5,854.1685,387.5,842.1685" style="stroke:#181818;stroke-width:0.5;"/><polygon fill="#F1F1F1" points="387.5,391.5044,399.5,403.5044,387.5,415.5044,375.5,403.5044,387.5,391.5044" style="stroke:#181818;stroke-width:0.5;"/><polygon fill="#F1F1F1" points="270.5,886.1685,504.5,886.1685,516.5,898.1685,504.5,910.1685,270.5,910.1685,258.5,898.1685,270.5,886.1685" style="stroke:#181818;stroke-width:0.5;"/><text fill="#000000" font-family="sans-serif" font-size="11" lengthAdjust="spacing" textLength="42" x="270.5" y="901.9766">Did the</text><text fill="#000000" font-family="sans-serif" font-size="11" font-weight="bold" lengthAdjust="spacing" textLength="44" x="316.5" y="901.9766">Action</text><text fill="#000000" font-family="sans-serif" font-size="11" lengthAdjust="spacing" textLength="80" x="364.5" y="901.9766">return a list of</text><text fill="#000000" font-family="sans-serif" font-size="11" font-weight="bold" lengthAdjust="spacing" textLength="44" x="448.5" y="901.9766">Action</text><text fill="#000000" font-family="sans-serif" font-size="11" lengthAdjust="spacing" textLength="12" x="492.5" y="901.9766">s?</text><text fill="#000000" font-family="sans-serif" font-size="11" lengthAdjust="spacing" textLength="21" x="516.5" y="895.5742">Yes</text><polygon fill="#F1F1F1" points="387.5,293.5356,399.5,305.5356,387.5,317.5356,375.5,305.5356,387.5,293.5356" style="stroke:#181818;stroke-width:0.5;"/><polygon fill="#F1F1F1" points="262.5,951.665,512.5,951.665,524.5,963.665,512.5,975.665,262.5,975.665,250.5,963.665,262.5,951.665" style="stroke:#181818;stroke-width:0.5;"/><text fill="#000000" font-family="sans-serif" font-size="11" lengthAdjust="spacing" textLength="89" x="262.5" y="967.4731">Are there more</text><text fill="#000000" font-family="sans-serif" font-size="11" font-weight="bold" lengthAdjust="spacing" textLength="67" x="355.5" y="967.4731">Character</text><text fill="#000000" font-family="sans-serif" font-size="11" lengthAdjust="spacing" textLength="90" x="422.5" y="967.4731">s in the queue?</text><text fill="#000000" font-family="sans-serif" font-size="11" lengthAdjust="spacing" textLength="21" x="524.5" y="961.0708">Yes</text><polygon fill="#F1F1F1" points="387.5,195.5669,399.5,207.5669,387.5,219.5669,375.5,207.5669,387.5,195.5669" style="stroke:#181818;stroke-width:0.5;"/><line style="stroke:#181818;stroke-width:1.0;" x1="387.5" x2="387.5" y1="73.1958" y2="97.5981"/><polygon fill="#181818" points="383.5,87.5981,387.5,97.5981,391.5,87.5981,387.5,91.5981" style="stroke:#181818;stroke-width:1.0;"/><line style="stroke:#181818;stroke-width:1.0;" x1="453" x2="498.5" y1="61.1958" y2="61.1958"/><polygon fill="#181818" points="494.5,104.5825,498.5,114.5825,502.5,104.5825,498.5,108.5825" style="stroke:#181818;stroke-width:1.0;"/><line style="stroke:#181818;stroke-width:1.0;" x1="498.5" x2="498.5" y1="61.1958" y2="163.5669"/><line style="stroke:#181818;stroke-width:1.0;" x1="498.5" x2="399.5" y1="163.5669" y2="163.5669"/><polygon fill="#181818" points="409.5,159.5669,399.5,163.5669,409.5,167.5669,405.5,163.5669" style="stroke:#181818;stroke-width:1.0;"/><line style="stroke:#181818;stroke-width:1.0;" x1="387.5" x2="387.5" y1="131.5669" y2="151.5669"/><polygon fill="#181818" points="383.5,141.5669,387.5,151.5669,391.5,141.5669,387.5,145.5669" style="stroke:#181818;stroke-width:1.0;"/><line style="stroke:#181818;stroke-width:1.0;" x1="136.75" x2="136.75" y1="560.5903" y2="595.5903"/><polygon fill="#181818" points="132.75,585.5903,136.75,595.5903,140.75,585.5903,136.75,589.5903" style="stroke:#181818;stroke-width:1.0;"/><line style="stroke:#181818;stroke-width:1.0;" x1="310.5" x2="136.75" y1="504.6216" y2="504.6216"/><line style="stroke:#181818;stroke-width:1.0;" x1="136.75" x2="136.75" y1="504.6216" y2="526.6216"/><polygon fill="#181818" points="132.75,516.6216,136.75,526.6216,140.75,516.6216,136.75,520.6216" style="stroke:#181818;stroke-width:1.0;"/><line style="stroke:#181818;stroke-width:1.0;" x1="464.5" x2="638.25" y1="504.6216" y2="504.6216"/><line style="stroke:#181818;stroke-width:1.0;" x1="638.25" x2="638.25" y1="504.6216" y2="560.0356"/><polygon fill="#181818" points="634.25,550.0356,638.25,560.0356,642.25,550.0356,638.25,554.0356" style="stroke:#181818;stroke-width:1.0;"/><line style="stroke:#181818;stroke-width:1.0;" x1="136.75" x2="136.75" y1="629.5591" y2="647.5591"/><line style="stroke:#181818;stroke-width:1.0;" x1="136.75" x2="375.5" y1="647.5591" y2="647.5591"/><polygon fill="#181818" points="365.5,643.5591,375.5,647.5591,365.5,651.5591,369.5,647.5591" style="stroke:#181818;stroke-width:1.0;"/><line style="stroke:#181818;stroke-width:1.0;" x1="638.25" x2="638.25" y1="594.0044" y2="647.5591"/><line style="stroke:#181818;stroke-width:1.0;" x1="638.25" x2="399.5" y1="647.5591" y2="647.5591"/><polygon fill="#181818" points="409.5,643.5591,399.5,647.5591,409.5,651.5591,405.5,647.5591" style="stroke:#181818;stroke-width:1.0;"/><line style="stroke:#181818;stroke-width:1.0;" x1="387.5" x2="387.5" y1="469.4731" y2="492.6216"/><polygon fill="#181818" points="383.5,482.6216,387.5,492.6216,391.5,482.6216,387.5,486.6216" style="stroke:#181818;stroke-width:1.0;"/><line style="stroke:#181818;stroke-width:1.0;" x1="387.5" x2="387.5" y1="659.5591" y2="685.8286"/><polygon fill="#181818" points="383.5,675.8286,387.5,685.8286,391.5,675.8286,387.5,679.8286" style="stroke:#181818;stroke-width:1.0;"/><line style="stroke:#181818;stroke-width:1.0;" x1="387.5" x2="387.5" y1="763.7974" y2="788.1997"/><polygon fill="#181818" points="383.5,778.1997,387.5,788.1997,391.5,778.1997,387.5,782.1997" style="stroke:#181818;stroke-width:1.0;"/><line style="stroke:#181818;stroke-width:1.0;" x1="464.5" x2="530" y1="751.7974" y2="751.7974"/><polygon fill="#181818" points="526,795.1841,530,805.1841,534,795.1841,530,799.1841" style="stroke:#181818;stroke-width:1.0;"/><line style="stroke:#181818;stroke-width:1.0;" x1="530" x2="530" y1="751.7974" y2="854.1685"/><line style="stroke:#181818;stroke-width:1.0;" x1="530" x2="399.5" y1="854.1685" y2="854.1685"/><polygon fill="#181818" points="409.5,850.1685,399.5,854.1685,409.5,858.1685,405.5,854.1685" style="stroke:#181818;stroke-width:1.0;"/><line style="stroke:#181818;stroke-width:1.0;" x1="387.5" x2="387.5" y1="822.1685" y2="842.1685"/><polygon fill="#181818" points="383.5,832.1685,387.5,842.1685,391.5,832.1685,387.5,836.1685" style="stroke:#181818;stroke-width:1.0;"/><line style="stroke:#181818;stroke-width:1.0;" x1="387.5" x2="387.5" y1="719.7974" y2="739.7974"/><polygon fill="#181818" points="383.5,729.7974,387.5,739.7974,391.5,729.7974,387.5,733.7974" style="stroke:#181818;stroke-width:1.0;"/><line style="stroke:#181818;stroke-width:1.0;" x1="387.5" x2="387.5" y1="415.5044" y2="435.5044"/><polygon fill="#181818" points="383.5,425.5044,387.5,435.5044,391.5,425.5044,387.5,429.5044" style="stroke:#181818;stroke-width:1.0;"/><line style="stroke:#181818;stroke-width:1.0;" x1="516.5" x2="731.25" y1="898.1685" y2="898.1685"/><polygon fill="#181818" points="727.25,665.8286,731.25,655.8286,735.25,665.8286,731.25,661.8286" style="stroke:#181818;stroke-width:1.0;"/><line style="stroke:#181818;stroke-width:1.0;" x1="731.25" x2="731.25" y1="403.5044" y2="898.1685"/><line style="stroke:#181818;stroke-width:1.0;" x1="731.25" x2="399.5" y1="403.5044" y2="403.5044"/><polygon fill="#181818" points="409.5,399.5044,399.5,403.5044,409.5,407.5044,405.5,403.5044" style="stroke:#181818;stroke-width:1.0;"/><line style="stroke:#181818;stroke-width:1.0;" x1="387.5" x2="387.5" y1="866.1685" y2="886.1685"/><polygon fill="#181818" points="383.5,876.1685,387.5,886.1685,391.5,876.1685,387.5,880.1685" style="stroke:#181818;stroke-width:1.0;"/><line style="stroke:#181818;stroke-width:1.0;" x1="387.5" x2="387.5" y1="371.5044" y2="391.5044"/><polygon fill="#181818" points="383.5,381.5044,387.5,391.5044,391.5,381.5044,387.5,385.5044" style="stroke:#181818;stroke-width:1.0;"/><line style="stroke:#181818;stroke-width:1.0;" x1="387.5" x2="387.5" y1="317.5356" y2="337.5356"/><polygon fill="#181818" points="383.5,327.5356,387.5,337.5356,391.5,327.5356,387.5,331.5356" style="stroke:#181818;stroke-width:1.0;"/><line style="stroke:#181818;stroke-width:1.0;" x1="524.5" x2="749.25" y1="963.665" y2="963.665"/><polygon fill="#181818" points="745.25,631.3442,749.25,621.3442,753.25,631.3442,749.25,627.3442" style="stroke:#181818;stroke-width:1.0;"/><line style="stroke:#181818;stroke-width:1.0;" x1="749.25" x2="749.25" y1="305.5356" y2="963.665"/><line style="stroke:#181818;stroke-width:1.0;" x1="749.25" x2="399.5" y1="305.5356" y2="305.5356"/><polygon fill="#181818" points="409.5,301.5356,399.5,305.5356,409.5,309.5356,405.5,305.5356" style="stroke:#181818;stroke-width:1.0;"/><line style="stroke:#181818;stroke-width:1.0;" x1="387.5" x2="387.5" y1="910.1685" y2="951.665"/><polygon fill="#181818" points="383.5,941.665,387.5,951.665,391.5,941.665,387.5,945.665" style="stroke:#181818;stroke-width:1.0;"/><text fill="#000000" font-family="sans-serif" font-size="11" lengthAdjust="spacing" textLength="15" x="391.5" y="931.4731">No</text><line style="stroke:#181818;stroke-width:1.0;" x1="387.5" x2="387.5" y1="273.5356" y2="293.5356"/><polygon fill="#181818" points="383.5,283.5356,387.5,293.5356,391.5,283.5356,387.5,287.5356" style="stroke:#181818;stroke-width:1.0;"/><line style="stroke:#181818;stroke-width:1.0;" x1="387.5" x2="387.5" y1="219.5669" y2="239.5669"/><polygon fill="#181818" points="383.5,229.5669,387.5,239.5669,391.5,229.5669,387.5,233.5669" style="stroke:#181818;stroke-width:1.0;"/><line style="stroke:#181818;stroke-width:1.0;" x1="387.5" x2="767.25" y1="993.1616" y2="993.1616"/><polygon fill="#181818" points="763.25,590.8599,767.25,580.8599,771.25,590.8599,767.25,586.8599" style="stroke:#181818;stroke-width:1.0;"/><line style="stroke:#181818;stroke-width:1.0;" x1="767.25" x2="767.25" y1="207.5669" y2="993.1616"/><line style="stroke:#181818;stroke-width:1.0;" x1="767.25" x2="399.5" y1="207.5669" y2="207.5669"/><polygon fill="#181818" points="409.5,203.5669,399.5,207.5669,409.5,211.5669,405.5,207.5669" style="stroke:#181818;stroke-width:1.0;"/><text fill="#000000" font-family="sans-serif" font-size="11" lengthAdjust="spacing" textLength="15" x="771.25" y="996.9697">No</text><line style="stroke:#181818;stroke-width:1.0;" x1="387.5" x2="387.5" y1="975.665" y2="993.1616"/><line style="stroke:#181818;stroke-width:1.0;" x1="387.5" x2="387.5" y1="175.5669" y2="195.5669"/><polygon fill="#181818" points="383.5,185.5669,387.5,195.5669,391.5,185.5669,387.5,189.5669" style="stroke:#181818;stroke-width:1.0;"/><!--MD5=[a75d3b3942833784e9111ebcc6129750]
@startuml
title Ineffable Gameplay Loop

if (Is there a **Player**?) then (Yes)
  :<&person> Create **Player** **Character**]
else (No)
endif 
repeat
  :Create queue of **Character**s]
  repeat 
    :Get the next **Character**]
    repeat 
      :<&spreadsheet> Filter **Action**s to what's possible]
      note left
Each Action specifies a calculation
to determine its possibility
      end note
      if (Is it the **Player**'s turn?) then (Yes)
        :<&person> Present **Player** with list of **Action**s]
        :<&person> **Player** picks an **Action**]
      else (No)
        :<&spreadsheet> An **Action** is picked]
        note left
Each Action specifies a calculation
to determine its likelihood

Weighted Actions are distributed
via a weighted random function and 
an Action is chosen by RNG
        end note
      endif 
      :<&spreadsheet> Execute **Action**]
      if (Is it the **Player**'s turn?) then (Yes)
      else (No)
        :<&spreadsheet> Backpropagation (**Character** learns)]
      endif 
    repeat while (Did the **Action** return a list of **Action**s?) is (Yes)
    ->No;
  repeat while (Are there more **Character**s in the queue?) is (Yes)
  ->No;
@enduml

PlantUML version 1.2022.10beta1(Unknown compile time)
(GPL source distribution)
Java Runtime: Java(TM) SE Runtime Environment
JVM: Java HotSpot(TM) 64-Bit Server VM
Default Encoding: UTF-8
Language: en
Country: US
--></g></svg>